# xmcd
#
# Track frame offsets:
#	150
#	25666
#	56574
#	79671
#	108410
#	126694
#	162997
#	190739
#	216844
#	245655
#	276678
#	294355
#
# Disc length: 4212 seconds
#
# Revision: 1
# Processed by: cddbd v1.5.2PL0 Copyright (c) Steve Scherf et al.
# Submitted via: EasyCDDAExtractor 12.0.2.1
#
DISCID=b610720c
DTITLE=채수영 - 내가 사는 세상
DYEAR=2001
DGENRE=Blues
TTITLE0=이젠 한마디 해볼까
TTITLE1=내가 사는 세상
TTITLE2=그래도 태양은 오늘도 떠오르네
TTITLE3=그대에게
TTITLE4=One Soju
TTITLE5=May I have a Little Talk With You
TTITLE6=비
TTITLE7=Destiny
TTITLE8=철수와 순이
TTITLE9=If You Love Me
TTITLE10=Jam Night at Just Blues
TTITLE11=이젠 한마디 해볼까 (Shortened Version)
EXTD=
EXTT0=
EXTT1=
EXTT2=
EXTT3=
EXTT4=
EXTT5=
EXTT6=
EXTT7=
EXTT8=
EXTT9=
EXTT10=
EXTT11=
PLAYORDER=
